<?xml version="1.0" standalone="no"?>
<!DOCTYPE svg PUBLIC "-//W3C//DTD SVG 20010904//EN"
 "http://www.w3.org/TR/2001/REC-SVG-20010904/DTD/svg10.dtd">
<svg version="1.0" xmlns="http://www.w3.org/2000/svg"
 width="128.000000pt" height="126.000000pt" viewBox="0 0 128.000000 126.000000"
 preserveAspectRatio="xMidYMid meet">
<metadata>
Created by potrace 1.15, written by Peter Selinger 2001-2017
</metadata>
<g transform="translate(0.000000,126.000000) scale(0.100000,-0.100000)"
fill="#000000" stroke="none">
<path d="M292 987 l-262 -262 0 -95 0 -95 263 -263 262 -262 95 0 95 0 263
263 262 262 0 95 0 95 -263 263 -262 262 -95 0 -95 0 -263 -263z m148 -22
l-245 -245 215 -215 215 -215 -30 -30 -30 -30 -245 245 -245 245 245 245 245
245 60 0 60 0 -245 -245z m547 -7 l243 -243 0 -60 0 -60 -245 245 -245 245
-215 -215 -214 -214 -31 29 -31 29 243 243 c134 134 245 243 248 243 3 0 114
-109 247 -242z m-7 -663 l-245 -245 -60 0 -60 0 245 245 245 245 -215 215
-214 214 29 31 29 31 246 -246 245 -245 -245 -245z m-170 490 l155 -155 -158
-158 -157 -157 -157 157 -158 158 155 155 c85 85 157 155 160 155 3 0 75 -70
160 -155z m-246 -605 c5 0 102 96 216 213 l208 212 31 -30 31 -30 -245 -245
-245 -245 -245 245 -245 245 0 60 0 60 243 -243 c133 -133 246 -242 251 -242z"/>
</g>
</svg>
