<svg xmlns="http://www.w3.org/2000/svg" version="1.0" width="128" height="126" preserveAspectRatio="xMidYMid meet" style=""><rect id="backgroundrect" width="100%" height="100%" x="0" y="0" fill="none" stroke="none"/>
<metadata>
Created by potrace 1.15, written by Peter Selinger 2001-2017
</metadata>

<g class="currentLayer" style=""><title>Layer 1</title><g transform="translate(0,126) scale(0.10000000149011612,-0.10000000149011612) " fill="#cb0112" stroke="#cb0112" id="svg_1" class="" stroke-opacity="1" fill-opacity="1">
<path d="M292 987 l-262 -262 0 -95 0 -95 263 -263 262 -262 95 0 95 0 263 263 262 262 0 95 0 95 -263 263 -262 262 -95 0 -95 0 -263 -263z m148 -22 l-245 -245 215 -215 215 -215 -30 -30 -30 -30 -245 245 -245 245 245 245 245 245 60 0 60 0 -245 -245z m547 -7 l243 -243 0 -60 0 -60 -245 245 -245 245 -215 -215 -214 -214 -31 29 -31 29 243 243 c134 134 245 243 248 243 3 0 114 -109 247 -242z m-7 -663 l-245 -245 -60 0 -60 0 245 245 245 245 -215 215 -214 214 29 31 29 31 246 -246 245 -245 -245 -245z m-170 490 l155 -155 -158 -158 -157 -157 -157 157 -158 158 155 155 c85 85 157 155 160 155 3 0 75 -70 160 -155z m-246 -605 c5 0 102 96 216 213 l208 212 31 -30 31 -30 -245 -245 -245 -245 -245 245 -245 245 0 60 0 60 243 -243 c133 -133 246 -242 251 -242z" id="svg_2" stroke="#cb0112" fill="#cb0112"/>
</g></g></svg>